<svg width="46" height="47" viewBox="0 0 46 47" fill="none" xmlns="http://www.w3.org/2000/svg">
<path d="M46 21.0654C45.5894 23.1801 45.1582 25.2949 44.7886 27.4302C43.8852 32.5425 43.0024 37.6549 42.0785 42.7673C41.7294 44.7178 40.169 45.9907 38.1775 45.9907C28.0759 46.0113 17.9539 46.0113 7.85233 45.9907C5.77864 45.9907 4.27984 44.6562 3.91027 42.562C2.61678 35.2527 1.34382 27.9229 0.0503311 20.5932C-0.278174 18.6632 1.03585 16.7332 2.98635 16.3431C3.58176 16.2199 4.19771 16.1789 4.81366 16.1789C10.0287 16.1583 15.2232 16.1789 20.4382 16.1789C20.8078 16.1789 21.1773 16.1789 21.7111 16.1789C21.7111 14.5774 21.7522 13.017 21.6701 11.4771C21.6701 11.2513 21.2184 10.9844 20.9104 10.8612C16.8452 9.15708 16.065 3.92153 19.5348 1.23189C20.2534 0.677542 21.2184 0.410632 22.0602 0C22.6761 0 23.2921 0 23.908 0C24.0928 0.0615947 24.2776 0.143721 24.4624 0.205316C27.6653 1.08817 29.4105 4.49642 28.2402 7.61722C27.5421 9.46506 26.146 10.5532 24.3392 11.1281C24.3392 12.8117 24.3392 14.4337 24.3392 16.1789C24.7498 16.1789 25.1194 16.1789 25.489 16.1789C30.6424 16.1789 35.7753 16.2199 40.9287 16.1583C43.413 16.1173 45.2403 16.877 45.9795 19.4023C46 19.9772 46 20.5316 46 21.0654ZM23.0046 18.7864C18.1387 18.7864 13.2727 18.7864 8.38615 18.7864C6.88735 18.7864 5.38854 18.7659 3.88974 18.8069C2.96582 18.8275 2.53465 19.3407 2.59625 20.2441C2.61678 20.6137 2.69891 20.9833 2.7605 21.3528C3.95133 28.1488 5.1627 34.9242 6.35353 41.7202C6.59991 43.1368 6.92841 43.4859 8.34509 43.4859C18.1181 43.4859 27.8911 43.4859 37.6642 43.4859C37.8079 43.4859 37.9311 43.4859 38.0748 43.4859C38.9371 43.4448 39.471 43.0136 39.6352 42.1513C40.8876 35.0679 42.1401 27.9845 43.3514 20.8806C43.6594 19.1354 43.3104 18.7864 41.5241 18.7864C35.3236 18.7864 29.1641 18.7864 23.0046 18.7864ZM23.0046 2.54591C21.321 2.54591 19.8428 4.02418 19.8838 5.68724C19.9044 7.32977 21.321 8.74645 22.943 8.78751C24.6061 8.82858 26.1049 7.3503 26.1254 5.68724C26.146 4.02418 24.6882 2.56645 23.0046 2.54591Z" fill="white"/>
<path d="M33.3321 32.3372C30.1291 32.3372 27.727 29.8735 27.7064 26.6089C27.7064 23.5908 30.2934 21.0654 33.3526 21.0859C36.4529 21.1065 38.9372 23.6729 38.9372 26.7937C38.9577 29.8324 36.4323 32.3167 33.3321 32.3372ZM36.3913 26.7937C36.4118 25.0485 35.0978 23.6319 33.3731 23.5908C31.6895 23.5497 30.2523 24.9869 30.2318 26.6705C30.2318 28.3952 31.6279 29.8324 33.3115 29.8324C34.9746 29.8324 36.3707 28.4568 36.3913 26.7937Z" fill="white"/>
<path d="M6.9079 26.6911C6.88737 23.6319 9.37169 21.1065 12.4514 21.0654C15.5517 21.0244 18.1797 23.6524 18.1592 26.7937C18.1387 29.7708 15.6133 32.2962 12.6157 32.3373C9.37169 32.3578 6.92843 29.9556 6.9079 26.6911ZM15.5928 26.7527C15.5928 25.028 14.2171 23.6113 12.513 23.5908C10.891 23.5703 9.43328 24.9869 9.39222 26.6295C9.35116 28.3131 10.7473 29.7913 12.4309 29.8324C14.135 29.8735 15.5722 28.4568 15.5928 26.7527Z" fill="white"/>
<path d="M22.9841 40.7551C20.5408 40.2624 18.2208 39.8107 15.9212 39.2974C15.0589 39.1126 14.6277 38.5582 14.8741 37.6549C15.1 36.8747 15.7364 36.6077 16.6809 36.9157C20.8899 38.2503 25.0988 38.2503 29.3078 36.9157C30.1085 36.6693 30.8066 36.7309 31.1556 37.6343C31.4431 38.3529 31.0941 39.051 30.1291 39.2769C27.7474 39.8312 25.3452 40.2624 22.9841 40.7551Z" fill="white"/>
</svg>
