<svg width="48" height="43" viewBox="0 0 48 43" fill="none" xmlns="http://www.w3.org/2000/svg">
<path d="M40.9231 10.4598H7.07692C4.27302 10.4598 2 12.7329 2 15.5368V35.8445C2 38.6484 4.27302 40.9214 7.07692 40.9214H40.9231C43.727 40.9214 46 38.6484 46 35.8445V15.5368C46 12.7329 43.727 10.4598 40.9231 10.4598Z" stroke="white" stroke-width="4" stroke-linejoin="round"/>
<path d="M40.4323 10.4598V7.28676C40.4321 6.50852 40.2601 5.73992 39.9286 5.03581C39.5971 4.3317 39.1142 3.70943 38.5146 3.2134C37.9149 2.71737 37.2131 2.35981 36.4593 2.16622C35.7056 1.97264 34.9183 1.9478 34.1538 2.09349L6.29846 6.84782C5.0888 7.07834 3.99751 7.72378 3.2128 8.6728C2.42809 9.62183 1.99917 10.8149 2 12.0464V17.2291" stroke="white" stroke-width="4" stroke-linejoin="round"/>
<path d="M35.846 29.0753C35.1766 29.0753 34.5222 28.8768 33.9657 28.5049C33.4091 28.1329 32.9752 27.6043 32.7191 26.9859C32.4629 26.3674 32.3959 25.6869 32.5265 25.0303C32.6571 24.3738 32.9794 23.7707 33.4528 23.2974C33.9261 22.824 34.5292 22.5017 35.1857 22.3711C35.8423 22.2405 36.5228 22.3075 37.1413 22.5637C37.7597 22.8198 38.2883 23.2537 38.6602 23.8103C39.0322 24.3669 39.2307 25.0212 39.2307 25.6906C39.2307 26.5883 38.8741 27.4492 38.2393 28.0839C37.6046 28.7187 36.7437 29.0753 35.846 29.0753Z" fill="white"/>
</svg>
