<svg width="52" height="48" viewBox="0 0 52 48" fill="none" xmlns="http://www.w3.org/2000/svg">
<path d="M15.5 32.5V2L18.9 3.69444L22.3 2L25.6936 3.69444L29.1329 2L32.5 3.69444L35.8777 2L39.2703 3.69444L42.7 2L46.1011 3.69444L49.5 2V25.7222" stroke="white" stroke-width="4" stroke-linejoin="round"/>
<path d="M49.5 25.5V37.4583C49.5 39.7237 48.6063 41.8963 47.0156 43.4982C45.4249 45.1001 43.2675 46 41.0179 46V46C38.7683 46 36.6108 45.1001 35.0201 43.4982C33.4294 41.8963 32.5357 39.7237 32.5357 37.4583V32.3333H3.69649C3.47316 32.3313 3.25168 32.3742 3.04496 32.4593C2.83825 32.5445 2.65045 32.6702 2.49252 32.8292C2.3346 32.9883 2.20972 33.1774 2.12517 33.3856C2.04061 33.5937 1.99809 33.8168 2.00007 34.0417C2.00007 40.875 2.71469 46 10.4822 46H41.0179" stroke="white" stroke-width="4" stroke-linejoin="round"/>
<path d="M22.5 12H42.5" stroke="white" stroke-width="4" stroke-linecap="round" stroke-linejoin="round"/>
<path d="M29 20.5H42.5" stroke="white" stroke-width="4" stroke-linecap="round" stroke-linejoin="round"/>
</svg>
