<svg width="37" height="49" viewBox="0 0 37 49" fill="none" xmlns="http://www.w3.org/2000/svg">
<path d="M26.1723 5.04053H29.3953C30.6775 5.04053 31.9071 5.55061 32.8138 6.45856C33.7204 7.36652 34.2297 8.59796 34.2297 9.882V42.1585C34.2297 43.4425 33.7204 44.674 32.8138 45.582C31.9071 46.4899 30.6775 47 29.3953 47H6.83446C5.55228 47 4.32262 46.4899 3.41598 45.582C2.50934 44.674 2 43.4425 2 42.1585V9.882C2 8.59796 2.50934 7.36652 3.41598 6.45856C4.32262 5.55061 5.55228 5.04053 6.83446 5.04053H10.0574" stroke="white" stroke-width="4" stroke-linejoin="round"/>
<path d="M23.643 2H12.5869C11.106 2 9.90552 3.22274 9.90552 4.73107V5.95812C9.90552 7.46645 11.106 8.68919 12.5869 8.68919H23.643C25.1239 8.68919 26.3244 7.46645 26.3244 5.95812V4.73107C26.3244 3.22274 25.1239 2 23.643 2Z" stroke="white" stroke-width="4" stroke-linejoin="round"/>
</svg>
